<svg width="16" height="16" viewBox="0 0 16 16" fill="none" xmlns="http://www.w3.org/2000/svg">
<path d="M10.6666 13.333V2.66634C10.6666 2.31272 10.5262 1.97358 10.2761 1.72353C10.0261 1.47348 9.68694 1.33301 9.33331 1.33301H6.66665C6.31302 1.33301 5.97389 1.47348 5.72384 1.72353C5.47379 1.97358 5.33331 2.31272 5.33331 2.66634V13.333" stroke="#99A1AF" stroke-width="1.33333" stroke-linecap="round" stroke-linejoin="round"/>
<path d="M13.3333 4H2.66665C1.93027 4 1.33331 4.59695 1.33331 5.33333V12C1.33331 12.7364 1.93027 13.3333 2.66665 13.3333H13.3333C14.0697 13.3333 14.6666 12.7364 14.6666 12V5.33333C14.6666 4.59695 14.0697 4 13.3333 4Z" stroke="#99A1AF" stroke-width="1.33333" stroke-linecap="round" stroke-linejoin="round"/>
</svg>
