<svg width="16" height="16" viewBox="0 0 16 16" fill="none" xmlns="http://www.w3.org/2000/svg">
<g clip-path="url(#clip0_1_2000)">
<path d="M6.66669 9.77344V10.8574C6.66417 11.0859 6.60301 11.3098 6.48907 11.5078C6.37514 11.7058 6.21225 11.8712 6.01602 11.9881C5.59945 12.2966 5.26058 12.6981 5.02634 13.1605C4.79211 13.623 4.66896 14.1337 4.66669 14.6521" stroke="#99A1AF" stroke-width="1.33333" stroke-linecap="round" stroke-linejoin="round"/>
<path d="M9.33331 9.77344V10.8574C9.33583 11.0859 9.39699 11.3098 9.51093 11.5078C9.62486 11.7058 9.78775 11.8712 9.98398 11.9881C10.4006 12.2966 10.7394 12.6981 10.9737 13.1605C11.2079 13.623 11.331 14.1337 11.3333 14.6521" stroke="#99A1AF" stroke-width="1.33333" stroke-linecap="round" stroke-linejoin="round"/>
<path d="M12 6.00033H13C13.442 6.00033 13.866 5.82473 14.1785 5.51217C14.4911 5.19961 14.6667 4.77569 14.6667 4.33366C14.6667 3.89163 14.4911 3.46771 14.1785 3.15515C13.866 2.84259 13.442 2.66699 13 2.66699H12" stroke="#99A1AF" stroke-width="1.33333" stroke-linecap="round" stroke-linejoin="round"/>
<path d="M2.66669 14.667H13.3334" stroke="#99A1AF" stroke-width="1.33333" stroke-linecap="round" stroke-linejoin="round"/>
<path d="M4 5.99967C4 7.06054 4.42143 8.07796 5.17157 8.8281C5.92172 9.57825 6.93913 9.99967 8 9.99967C9.06087 9.99967 10.0783 9.57825 10.8284 8.8281C11.5786 8.07796 12 7.06054 12 5.99967V1.99967C12 1.82286 11.9298 1.65329 11.8047 1.52827C11.6797 1.40325 11.5101 1.33301 11.3333 1.33301H4.66667C4.48986 1.33301 4.32029 1.40325 4.19526 1.52827C4.07024 1.65329 4 1.82286 4 1.99967V5.99967Z" stroke="#99A1AF" stroke-width="1.33333" stroke-linecap="round" stroke-linejoin="round"/>
<path d="M3.99998 6.00033H2.99998C2.55795 6.00033 2.13403 5.82473 1.82147 5.51217C1.50891 5.19961 1.33331 4.77569 1.33331 4.33366C1.33331 3.89163 1.50891 3.46771 1.82147 3.15515C2.13403 2.84259 2.55795 2.66699 2.99998 2.66699H3.99998" stroke="#99A1AF" stroke-width="1.33333" stroke-linecap="round" stroke-linejoin="round"/>
</g>
<defs>
<clipPath id="clip0_1_2000">
<rect width="16" height="16" fill="white"/>
</clipPath>
</defs>
</svg>
